<svg xmlns="http://www.w3.org/2000/svg" viewBox="4388 14682 316 63.262">
  <defs>
    <style>
      .cls-1 {
        fill: #313131;
      }
    </style>
  </defs>
  <g id="Group_812" data-name="Group 812" transform="translate(4309 14020)">
    <g id="icons8-iphone" transform="translate(371 697)">
      <path id="Path_765" data-name="Path 765" class="cls-1" d="M11,4A3.016,3.016,0,0,0,8,7V25a3.016,3.016,0,0,0,3,3H21a3.016,3.016,0,0,0,3-3V7a3.016,3.016,0,0,0-3-3Zm0,2H21a1,1,0,0,1,1,1V25a1,1,0,0,1-1,1H11a1,1,0,0,1-1-1V7A1,1,0,0,1,11,6Zm5,17a1,1,0,1,0,1,1A1,1,0,0,0,16,23Z"/>
    </g>
    <path id="icons8-laptop" class="cls-1" d="M13.333,5a8.041,8.041,0,0,0-8,8V47.667A7.933,7.933,0,0,0,7.432,53H0a8,8,0,0,0,8,8H72a8,8,0,0,0,8-8H72.568a7.933,7.933,0,0,0,2.1-5.333V13a8.041,8.041,0,0,0-8-8Zm0,5.333H66.667A2.624,2.624,0,0,1,69.333,13V47.667a2.624,2.624,0,0,1-2.667,2.667H13.333a2.624,2.624,0,0,1-2.667-2.667V13A2.624,2.624,0,0,1,13.333,10.333Z" transform="translate(189 664)"/>
    <g id="icons8-monitor" transform="translate(77 661)">
      <path id="Path_766" data-name="Path 766" class="cls-1" d="M2,6V57.429H39.143v5.714H24.857v5.714H59.143V63.143H44.857V57.429H82V6Zm5.714,5.714H76.286v40H7.714Z" transform="translate(0 -5)"/>
    </g>
    <path id="icons8-ipad" class="cls-1" d="M48.154,5H5.846A3.85,3.85,0,0,0,2,8.846V39.615a3.85,3.85,0,0,0,3.846,3.846H48.154A3.85,3.85,0,0,0,52,39.615V8.846A3.85,3.85,0,0,0,48.154,5ZM46.231,26.154V39.615H5.846V8.846H46.231V22.308a1.923,1.923,0,0,1,0,3.846Z" transform="translate(297 681.8)"/>
  </g>
</svg>
