<svg xmlns="http://www.w3.org/2000/svg" viewBox="4388 14682 200 40.039">
  <defs>
    <style>
      .cls-1 {
        fill: #313131;
      }
    </style>
  </defs>
  <g id="Group_812" data-name="Group 812" transform="translate(4309 14020)">
    <g id="icons8-iphone" transform="translate(268.873 686.684)">
      <path id="Path_765" data-name="Path 765" class="cls-1" d="M9.9,4A1.909,1.909,0,0,0,8,5.9V17.291a1.909,1.909,0,0,0,1.9,1.9h6.329a1.909,1.909,0,0,0,1.9-1.9V5.9a1.909,1.909,0,0,0-1.9-1.9Zm0,1.266h6.329a.631.631,0,0,1,.633.633V17.291a.631.631,0,0,1-.633.633H9.9a.631.631,0,0,1-.633-.633V5.9A.631.631,0,0,1,9.9,5.266Zm3.165,10.759a.633.633,0,1,0,.633.633A.634.634,0,0,0,13.063,16.025Z" transform="translate(-8 -4)"/>
    </g>
    <path id="icons8-laptop" class="cls-1" d="M8.439,5a5.089,5.089,0,0,0-5.063,5.063V32A5.021,5.021,0,0,0,4.7,35.38H0a5.063,5.063,0,0,0,5.063,5.063H45.57a5.063,5.063,0,0,0,5.063-5.063h-4.7A5.021,5.021,0,0,0,47.257,32V10.063A5.089,5.089,0,0,0,42.194,5Zm0,3.376H42.194a1.661,1.661,0,0,1,1.688,1.688V32a1.661,1.661,0,0,1-1.688,1.688H8.439A1.661,1.661,0,0,1,6.751,32V10.063A1.661,1.661,0,0,1,8.439,8.376Z" transform="translate(148.62 661.43)"/>
    <g id="icons8-monitor" transform="translate(79 662)">
      <path id="Path_766" data-name="Path 766" class="cls-1" d="M2,6V38.55H25.508v3.617H16.467v3.617h21.7V42.166H29.125V38.55H52.633V6ZM5.617,9.617h43.4V34.933H5.617Z" transform="translate(-2 -6)"/>
    </g>
    <path id="icons8-ipad" class="cls-1" d="M31.211,5H4.434A2.437,2.437,0,0,0,2,7.434V26.908a2.437,2.437,0,0,0,2.434,2.434H31.211a2.437,2.437,0,0,0,2.434-2.434V7.434A2.437,2.437,0,0,0,31.211,5ZM29.994,18.389v8.52H4.434V7.434h25.56v8.52a1.217,1.217,0,0,1,0,2.434Z" transform="translate(216.241 672.696)"/>
  </g>
</svg>
